<svg width="96" height="96" viewBox="0 0 96 96" fill="none" xmlns="http://www.w3.org/2000/svg">
<path fill-rule="evenodd" clip-rule="evenodd" d="M86 10H10V48C10 68.9868 27.0132 86 48 86C68.9868 86 86 68.9868 86 48V10ZM0 0V48C0 74.5097 21.4903 96 48 96C74.5097 96 96 74.5097 96 48V0H0Z" fill="black"/>
<path fill-rule="evenodd" clip-rule="evenodd" d="M86 10H58V24C58 31.732 64.268 38 72 38C79.732 38 86 31.732 86 24V10ZM48 0V24C48 37.2548 58.7452 48 72 48C85.2548 48 96 37.2548 96 24V0H48Z" fill="black"/>
</svg>
